<mxfile host="app.diagrams.net" agent="Mozilla/5.0 (Windows NT 10.0; Win64; x64) AppleWebKit/537.36 (KHTML, like Gecko) Chrome/140.0.0.0 Safari/537.36 Edg/140.0.0.0" version="28.2.5">
  <diagram name="Seite-1" id="kS52gp3soUE9cORDytpj">
    <mxGraphModel dx="1426" dy="832" grid="1" gridSize="10" guides="1" tooltips="1" connect="1" arrows="1" fold="1" page="1" pageScale="1" pageWidth="827" pageHeight="1169" math="0" shadow="0">
      <root>
        <mxCell id="0" />
        <mxCell id="1" parent="0" />
        <mxCell id="ww1EtHsn1C0MawB3Ha7A-7" style="edgeStyle=orthogonalEdgeStyle;rounded=0;orthogonalLoop=1;jettySize=auto;html=1;" edge="1" parent="1" source="ww1EtHsn1C0MawB3Ha7A-2" target="ww1EtHsn1C0MawB3Ha7A-5">
          <mxGeometry relative="1" as="geometry" />
        </mxCell>
        <mxCell id="ww1EtHsn1C0MawB3Ha7A-2" value="&lt;font style=&quot;font-size: 18px;&quot;&gt;Start&lt;/font&gt;" style="ellipse;whiteSpace=wrap;html=1;aspect=fixed;" vertex="1" parent="1">
          <mxGeometry x="160" y="30" width="80" height="80" as="geometry" />
        </mxCell>
        <mxCell id="ww1EtHsn1C0MawB3Ha7A-3" value="&lt;font style=&quot;font-size: 18px;&quot;&gt;End&lt;/font&gt;" style="ellipse;whiteSpace=wrap;html=1;aspect=fixed;" vertex="1" parent="1">
          <mxGeometry x="160" y="590" width="80" height="80" as="geometry" />
        </mxCell>
        <mxCell id="ww1EtHsn1C0MawB3Ha7A-11" value="" style="edgeStyle=orthogonalEdgeStyle;rounded=0;orthogonalLoop=1;jettySize=auto;html=1;" edge="1" parent="1" source="ww1EtHsn1C0MawB3Ha7A-4" target="ww1EtHsn1C0MawB3Ha7A-9">
          <mxGeometry relative="1" as="geometry" />
        </mxCell>
        <mxCell id="ww1EtHsn1C0MawB3Ha7A-4" value="&lt;font style=&quot;font-size: 18px;&quot;&gt;Input&lt;/font&gt;" style="shape=parallelogram;perimeter=parallelogramPerimeter;whiteSpace=wrap;html=1;fixedSize=1;" vertex="1" parent="1">
          <mxGeometry x="140" y="220" width="120" height="60" as="geometry" />
        </mxCell>
        <mxCell id="ww1EtHsn1C0MawB3Ha7A-8" style="edgeStyle=orthogonalEdgeStyle;rounded=0;orthogonalLoop=1;jettySize=auto;html=1;entryX=0.5;entryY=0;entryDx=0;entryDy=0;" edge="1" parent="1" source="ww1EtHsn1C0MawB3Ha7A-5" target="ww1EtHsn1C0MawB3Ha7A-4">
          <mxGeometry relative="1" as="geometry" />
        </mxCell>
        <mxCell id="ww1EtHsn1C0MawB3Ha7A-5" value="&lt;font style=&quot;font-size: 18px;&quot;&gt;Print: Wie alt bist du?&lt;/font&gt;" style="rounded=1;whiteSpace=wrap;html=1;" vertex="1" parent="1">
          <mxGeometry x="110" y="140" width="180" height="50" as="geometry" />
        </mxCell>
        <mxCell id="ww1EtHsn1C0MawB3Ha7A-6" value="&lt;font style=&quot;font-size: 18px;&quot;&gt;Process: Calculation&lt;/font&gt;" style="rounded=0;whiteSpace=wrap;html=1;" vertex="1" parent="1">
          <mxGeometry x="400" y="135" width="190" height="60" as="geometry" />
        </mxCell>
        <mxCell id="ww1EtHsn1C0MawB3Ha7A-13" value="" style="edgeStyle=orthogonalEdgeStyle;rounded=0;orthogonalLoop=1;jettySize=auto;html=1;" edge="1" parent="1" source="ww1EtHsn1C0MawB3Ha7A-9" target="ww1EtHsn1C0MawB3Ha7A-10">
          <mxGeometry relative="1" as="geometry" />
        </mxCell>
        <mxCell id="ww1EtHsn1C0MawB3Ha7A-17" value="&lt;font style=&quot;font-size: 18px;&quot;&gt;Yes&lt;/font&gt;" style="edgeLabel;html=1;align=center;verticalAlign=middle;resizable=0;points=[];" vertex="1" connectable="0" parent="ww1EtHsn1C0MawB3Ha7A-13">
          <mxGeometry x="-0.1136" y="3" relative="1" as="geometry">
            <mxPoint x="-3" y="-2" as="offset" />
          </mxGeometry>
        </mxCell>
        <mxCell id="ww1EtHsn1C0MawB3Ha7A-16" value="" style="edgeStyle=orthogonalEdgeStyle;rounded=0;orthogonalLoop=1;jettySize=auto;html=1;" edge="1" parent="1" source="ww1EtHsn1C0MawB3Ha7A-9" target="ww1EtHsn1C0MawB3Ha7A-15">
          <mxGeometry relative="1" as="geometry" />
        </mxCell>
        <mxCell id="ww1EtHsn1C0MawB3Ha7A-18" value="&lt;font style=&quot;font-size: 18px;&quot;&gt;No&lt;/font&gt;" style="edgeLabel;html=1;align=center;verticalAlign=middle;resizable=0;points=[];" vertex="1" connectable="0" parent="ww1EtHsn1C0MawB3Ha7A-16">
          <mxGeometry x="-0.0316" relative="1" as="geometry">
            <mxPoint x="-2" as="offset" />
          </mxGeometry>
        </mxCell>
        <mxCell id="ww1EtHsn1C0MawB3Ha7A-9" value="&lt;div&gt;&lt;font style=&quot;font-size: 18px;&quot;&gt;Over 50&lt;/font&gt;&lt;/div&gt;" style="rhombus;whiteSpace=wrap;html=1;" vertex="1" parent="1">
          <mxGeometry x="135" y="320" width="130" height="120" as="geometry" />
        </mxCell>
        <mxCell id="ww1EtHsn1C0MawB3Ha7A-14" value="" style="edgeStyle=orthogonalEdgeStyle;rounded=0;orthogonalLoop=1;jettySize=auto;html=1;" edge="1" parent="1" source="ww1EtHsn1C0MawB3Ha7A-10" target="ww1EtHsn1C0MawB3Ha7A-3">
          <mxGeometry relative="1" as="geometry" />
        </mxCell>
        <mxCell id="ww1EtHsn1C0MawB3Ha7A-10" value="&lt;font style=&quot;font-size: 18px;&quot;&gt;Du bist alt geworden.&lt;/font&gt;" style="rounded=1;whiteSpace=wrap;html=1;" vertex="1" parent="1">
          <mxGeometry x="105" y="490" width="190" height="60" as="geometry" />
        </mxCell>
        <mxCell id="ww1EtHsn1C0MawB3Ha7A-21" style="edgeStyle=orthogonalEdgeStyle;rounded=0;orthogonalLoop=1;jettySize=auto;html=1;entryX=1;entryY=0.5;entryDx=0;entryDy=0;" edge="1" parent="1" source="ww1EtHsn1C0MawB3Ha7A-15" target="ww1EtHsn1C0MawB3Ha7A-3">
          <mxGeometry relative="1" as="geometry">
            <Array as="points">
              <mxPoint x="600" y="380" />
              <mxPoint x="600" y="630" />
            </Array>
          </mxGeometry>
        </mxCell>
        <mxCell id="ww1EtHsn1C0MawB3Ha7A-15" value="&lt;font style=&quot;font-size: 18px;&quot;&gt;Aha. eines Tages wirst du auch alt.&lt;/font&gt;" style="rounded=1;whiteSpace=wrap;html=1;" vertex="1" parent="1">
          <mxGeometry x="320" y="350" width="250" height="60" as="geometry" />
        </mxCell>
      </root>
    </mxGraphModel>
  </diagram>
</mxfile>
